<svg width="512" height="512" viewBox="0 0 512 512" fill="none" xmlns="http://www.w3.org/2000/svg">
<g clip-path="url(#clip0_2_3214)">
<path d="M305.554 144.73V166.618H285.149V188.461H264.702V210.348H244.297V188.461H223.851V166.618H203.446V144.73H223.851V122.843H244.297V101H264.702V122.843H285.149V144.73H305.554Z" fill="#2CFC26"/>
<path d="M387.297 232.191V254.078H366.851V275.922H346.446V297.809H326V275.922H305.554V254.078H285.149V232.191H305.554V210.348H326V188.461H346.446V210.348H366.851V232.191H387.297Z" fill="#2CFC26"/>
<path d="M469 319.696V341.539H448.554V363.426H428.149V385.27H407.703V407.157H366.851V429H305.554V407.157H285.149V385.27H264.703V363.426H244.297V385.27H223.851V407.157H203.446V429H142.149V407.157H101.297V385.27H80.8513V363.426H60.4462V341.539H40V319.696H60.4462V297.809H80.8513V275.922H101.297V319.696H121.703V341.539H142.149V363.426H203.446V341.539H223.851V319.696H203.446V297.809H183V275.922H162.554V254.078H121.703V232.191H142.149V210.348H162.554V188.461H183V210.348H203.446V232.191H223.851V254.078H244.297V275.922H264.703V297.809H285.149V319.696H305.554V341.539H326V363.426H366.851V341.539H387.297V319.696H407.703V275.922H428.149V297.809H448.554V319.696H469Z" fill="#2CFC26"/>
</g>
<defs>
<clipPath id="clip0_2_3214">
<rect width="429" height="328" fill="white" transform="translate(40 101)"/>
</clipPath>
</defs>
</svg>
